<svg xmlns="http://www.w3.org/2000/svg" version="1.1" xmlns:xlink="http://www.w3.org/1999/xlink" xmlns:svgjs="http://svgjs.com/svgjs" width="1440" height="560" preserveAspectRatio="none" viewBox="0 0 1440 560"><g mask="url(&quot;#SvgjsMask1014&quot;)" fill="none"><path d="M-95.98 376.73L-95.98 376.73" stroke="rgba(255, 255, 255, 1)" stroke-width="1.5"></path><path d="M-95.98 376.73L-56.49 507.9" stroke="rgba(255, 255, 255, 1)" stroke-width="1.5"></path><path d="M-95.98 376.73L49.86 501.4" stroke="rgba(255, 255, 255, 1)" stroke-width="1.5"></path><path d="M-56.49 507.9L-56.49 507.9" stroke="rgba(255, 255, 255, 1)" stroke-width="1.5"></path><path d="M-56.49 507.9L49.86 501.4" stroke="rgba(255, 255, 255, 1)" stroke-width="1.5"></path><path d="M-56.49 507.9L98.03 361.79" stroke="rgba(255, 255, 255, 1)" stroke-width="1.5"></path><path d="M-56.49 507.9L65.47 699.14" stroke="rgba(255, 255, 255, 1)" stroke-width="1.5"></path><path d="M-56.49 507.9L217.36 489.68" stroke="rgba(255, 255, 255, 1)" stroke-width="1.5"></path><path d="M-56.49 507.9L245.78 347.79" stroke="rgba(255, 255, 255, 1)" stroke-width="1.5"></path><path d="M98.03 361.79L98.03 361.79" stroke="rgba(255, 255, 255, 1)" stroke-width="1.5"></path><path d="M98.03 361.79L49.86 501.4" stroke="rgba(255, 255, 255, 1)" stroke-width="1.5"></path><path d="M98.03 361.79L245.78 347.79" stroke="rgba(255, 255, 255, 1)" stroke-width="1.5"></path><path d="M98.03 361.79L217.36 489.68" stroke="rgba(255, 255, 255, 1)" stroke-width="1.5"></path><path d="M49.86 501.4L49.86 501.4" stroke="rgba(255, 255, 255, 1)" stroke-width="1.5"></path><path d="M49.86 501.4L217.36 489.68" stroke="rgba(255, 255, 255, 1)" stroke-width="1.5"></path><path d="M49.86 501.4L65.47 699.14" stroke="rgba(255, 255, 255, 1)" stroke-width="1.5"></path><path d="M49.86 501.4L245.78 347.79" stroke="rgba(255, 255, 255, 1)" stroke-width="1.5"></path><path d="M65.47 699.14L65.47 699.14" stroke="rgba(255, 255, 255, 1)" stroke-width="1.5"></path><path d="M65.47 699.14L233.25 695.4" stroke="rgba(255, 255, 255, 1)" stroke-width="1.5"></path><path d="M65.47 699.14L217.36 489.68" stroke="rgba(255, 255, 255, 1)" stroke-width="1.5"></path><path d="M65.47 699.14L98.03 361.79" stroke="rgba(255, 255, 255, 1)" stroke-width="1.5"></path><path d="M245.78 347.79L245.78 347.79" stroke="rgba(255, 255, 255, 1)" stroke-width="1.5"></path><path d="M245.78 347.79L338.69 370.04" stroke="rgba(255, 255, 255, 1)" stroke-width="1.5"></path><path d="M245.78 347.79L217.36 489.68" stroke="rgba(255, 255, 255, 1)" stroke-width="1.5"></path><path d="M217.36 489.68L217.36 489.68" stroke="rgba(255, 255, 255, 1)" stroke-width="1.5"></path><path d="M217.36 489.68L365.64 535.82" stroke="rgba(255, 255, 255, 1)" stroke-width="1.5"></path><path d="M217.36 489.68L338.69 370.04" stroke="rgba(255, 255, 255, 1)" stroke-width="1.5"></path><path d="M233.25 695.4L233.25 695.4" stroke="rgba(255, 255, 255, 1)" stroke-width="1.5"></path><path d="M233.25 695.4L408.7 668" stroke="rgba(255, 255, 255, 1)" stroke-width="1.5"></path><path d="M338.69 370.04L338.69 370.04" stroke="rgba(255, 255, 255, 1)" stroke-width="1.5"></path><path d="M338.69 370.04L365.64 535.82" stroke="rgba(255, 255, 255, 1)" stroke-width="1.5"></path><path d="M338.69 370.04L505.35 404.92" stroke="rgba(255, 255, 255, 1)" stroke-width="1.5"></path><path d="M365.64 535.82L365.64 535.82" stroke="rgba(255, 255, 255, 1)" stroke-width="1.5"></path><path d="M365.64 535.82L408.7 668" stroke="rgba(255, 255, 255, 1)" stroke-width="1.5"></path><path d="M365.64 535.82L550.69 494.17" stroke="rgba(255, 255, 255, 1)" stroke-width="1.5"></path><path d="M365.64 535.82L505.35 404.92" stroke="rgba(255, 255, 255, 1)" stroke-width="1.5"></path><path d="M408.7 668L408.7 668" stroke="rgba(255, 255, 255, 1)" stroke-width="1.5"></path><path d="M408.7 668L550.91 656.94" stroke="rgba(255, 255, 255, 1)" stroke-width="1.5"></path><path d="M408.7 668L550.69 494.17" stroke="rgba(255, 255, 255, 1)" stroke-width="1.5"></path><path d="M408.7 668L640.25 704.49" stroke="rgba(255, 255, 255, 1)" stroke-width="1.5"></path><path d="M408.7 668L217.36 489.68" stroke="rgba(255, 255, 255, 1)" stroke-width="1.5"></path><path d="M505.35 404.92L505.35 404.92" stroke="rgba(255, 255, 255, 1)" stroke-width="1.5"></path><path d="M505.35 404.92L550.69 494.17" stroke="rgba(255, 255, 255, 1)" stroke-width="1.5"></path><path d="M550.69 494.17L550.69 494.17" stroke="rgba(255, 255, 255, 1)" stroke-width="1.5"></path><path d="M550.69 494.17L690.52 533.62" stroke="rgba(255, 255, 255, 1)" stroke-width="1.5"></path><path d="M550.69 494.17L550.91 656.94" stroke="rgba(255, 255, 255, 1)" stroke-width="1.5"></path><path d="M550.91 656.94L550.91 656.94" stroke="rgba(255, 255, 255, 1)" stroke-width="1.5"></path><path d="M550.91 656.94L640.25 704.49" stroke="rgba(255, 255, 255, 1)" stroke-width="1.5"></path><path d="M550.91 656.94L690.52 533.62" stroke="rgba(255, 255, 255, 1)" stroke-width="1.5"></path><path d="M692.14 211.87L692.14 211.87" stroke="rgba(255, 255, 255, 1)" stroke-width="1.5"></path><path d="M692.14 211.87L802.57 244.41" stroke="rgba(255, 255, 255, 1)" stroke-width="1.5"></path><path d="M692.14 211.87L707.61 349.12" stroke="rgba(255, 255, 255, 1)" stroke-width="1.5"></path><path d="M692.14 211.87L810.72 347.85" stroke="rgba(255, 255, 255, 1)" stroke-width="1.5"></path><path d="M707.61 349.12L707.61 349.12" stroke="rgba(255, 255, 255, 1)" stroke-width="1.5"></path><path d="M707.61 349.12L810.72 347.85" stroke="rgba(255, 255, 255, 1)" stroke-width="1.5"></path><path d="M707.61 349.12L802.57 244.41" stroke="rgba(255, 255, 255, 1)" stroke-width="1.5"></path><path d="M707.61 349.12L690.52 533.62" stroke="rgba(255, 255, 255, 1)" stroke-width="1.5"></path><path d="M707.61 349.12L505.35 404.92" stroke="rgba(255, 255, 255, 1)" stroke-width="1.5"></path><path d="M707.61 349.12L550.69 494.17" stroke="rgba(255, 255, 255, 1)" stroke-width="1.5"></path><path d="M690.52 533.62L690.52 533.62" stroke="rgba(255, 255, 255, 1)" stroke-width="1.5"></path><path d="M690.52 533.62L826.58 552.73" stroke="rgba(255, 255, 255, 1)" stroke-width="1.5"></path><path d="M690.52 533.62L640.25 704.49" stroke="rgba(255, 255, 255, 1)" stroke-width="1.5"></path><path d="M640.25 704.49L640.25 704.49" stroke="rgba(255, 255, 255, 1)" stroke-width="1.5"></path><path d="M640.25 704.49L842.76 689.23" stroke="rgba(255, 255, 255, 1)" stroke-width="1.5"></path><path d="M640.25 704.49L550.69 494.17" stroke="rgba(255, 255, 255, 1)" stroke-width="1.5"></path><path d="M802.57 244.41L802.57 244.41" stroke="rgba(255, 255, 255, 1)" stroke-width="1.5"></path><path d="M802.57 244.41L810.72 347.85" stroke="rgba(255, 255, 255, 1)" stroke-width="1.5"></path><path d="M802.57 244.41L954.95 189.51" stroke="rgba(255, 255, 255, 1)" stroke-width="1.5"></path><path d="M802.57 244.41L939.11 393.65" stroke="rgba(255, 255, 255, 1)" stroke-width="1.5"></path><path d="M810.72 347.85L810.72 347.85" stroke="rgba(255, 255, 255, 1)" stroke-width="1.5"></path><path d="M826.58 552.73L826.58 552.73" stroke="rgba(255, 255, 255, 1)" stroke-width="1.5"></path><path d="M826.58 552.73L842.76 689.23" stroke="rgba(255, 255, 255, 1)" stroke-width="1.5"></path><path d="M826.58 552.73L963.69 497.43" stroke="rgba(255, 255, 255, 1)" stroke-width="1.5"></path><path d="M826.58 552.73L939.11 393.65" stroke="rgba(255, 255, 255, 1)" stroke-width="1.5"></path><path d="M826.58 552.73L810.72 347.85" stroke="rgba(255, 255, 255, 1)" stroke-width="1.5"></path><path d="M826.58 552.73L1010.92 683.73" stroke="rgba(255, 255, 255, 1)" stroke-width="1.5"></path><path d="M842.76 689.23L842.76 689.23" stroke="rgba(255, 255, 255, 1)" stroke-width="1.5"></path><path d="M842.76 689.23L1010.92 683.73" stroke="rgba(255, 255, 255, 1)" stroke-width="1.5"></path><path d="M842.76 689.23L690.52 533.62" stroke="rgba(255, 255, 255, 1)" stroke-width="1.5"></path><path d="M842.76 689.23L963.69 497.43" stroke="rgba(255, 255, 255, 1)" stroke-width="1.5"></path><path d="M968.07 44.88L968.07 44.88" stroke="rgba(255, 255, 255, 1)" stroke-width="1.5"></path><path d="M968.07 44.88L954.95 189.51" stroke="rgba(255, 255, 255, 1)" stroke-width="1.5"></path><path d="M968.07 44.88L1092.21 -89.07" stroke="rgba(255, 255, 255, 1)" stroke-width="1.5"></path><path d="M968.07 44.88L1142.96 99.17" stroke="rgba(255, 255, 255, 1)" stroke-width="1.5"></path><path d="M968.07 44.88L1123.16 187.95" stroke="rgba(255, 255, 255, 1)" stroke-width="1.5"></path><path d="M968.07 44.88L802.57 244.41" stroke="rgba(255, 255, 255, 1)" stroke-width="1.5"></path><path d="M954.95 189.51L954.95 189.51" stroke="rgba(255, 255, 255, 1)" stroke-width="1.5"></path><path d="M954.95 189.51L1123.16 187.95" stroke="rgba(255, 255, 255, 1)" stroke-width="1.5"></path><path d="M954.95 189.51L939.11 393.65" stroke="rgba(255, 255, 255, 1)" stroke-width="1.5"></path><path d="M954.95 189.51L1142.96 99.17" stroke="rgba(255, 255, 255, 1)" stroke-width="1.5"></path><path d="M954.95 189.51L810.72 347.85" stroke="rgba(255, 255, 255, 1)" stroke-width="1.5"></path><path d="M939.11 393.65L939.11 393.65" stroke="rgba(255, 255, 255, 1)" stroke-width="1.5"></path><path d="M939.11 393.65L963.69 497.43" stroke="rgba(255, 255, 255, 1)" stroke-width="1.5"></path><path d="M939.11 393.65L810.72 347.85" stroke="rgba(255, 255, 255, 1)" stroke-width="1.5"></path><path d="M939.11 393.65L1105.77 363.79" stroke="rgba(255, 255, 255, 1)" stroke-width="1.5"></path><path d="M963.69 497.43L963.69 497.43" stroke="rgba(255, 255, 255, 1)" stroke-width="1.5"></path><path d="M963.69 497.43L1089.96 559.9" stroke="rgba(255, 255, 255, 1)" stroke-width="1.5"></path><path d="M963.69 497.43L1010.92 683.73" stroke="rgba(255, 255, 255, 1)" stroke-width="1.5"></path><path d="M1010.92 683.73L1010.92 683.73" stroke="rgba(255, 255, 255, 1)" stroke-width="1.5"></path><path d="M1010.92 683.73L1121.81 680.9" stroke="rgba(255, 255, 255, 1)" stroke-width="1.5"></path><path d="M1010.92 683.73L1089.96 559.9" stroke="rgba(255, 255, 255, 1)" stroke-width="1.5"></path><path d="M1092.21 -89.07L1092.21 -89.07" stroke="rgba(255, 255, 255, 1)" stroke-width="1.5"></path><path d="M1092.21 -89.07L1244.69 -38.16" stroke="rgba(255, 255, 255, 1)" stroke-width="1.5"></path><path d="M1092.21 -89.07L1142.96 99.17" stroke="rgba(255, 255, 255, 1)" stroke-width="1.5"></path><path d="M1092.21 -89.07L1242.07 87" stroke="rgba(255, 255, 255, 1)" stroke-width="1.5"></path><path d="M1092.21 -89.07L1123.16 187.95" stroke="rgba(255, 255, 255, 1)" stroke-width="1.5"></path><path d="M1142.96 99.17L1142.96 99.17" stroke="rgba(255, 255, 255, 1)" stroke-width="1.5"></path><path d="M1142.96 99.17L1123.16 187.95" stroke="rgba(255, 255, 255, 1)" stroke-width="1.5"></path><path d="M1142.96 99.17L1242.07 87" stroke="rgba(255, 255, 255, 1)" stroke-width="1.5"></path><path d="M1123.16 187.95L1123.16 187.95" stroke="rgba(255, 255, 255, 1)" stroke-width="1.5"></path><path d="M1123.16 187.95L1242.07 87" stroke="rgba(255, 255, 255, 1)" stroke-width="1.5"></path><path d="M1123.16 187.95L1272.14 249.97" stroke="rgba(255, 255, 255, 1)" stroke-width="1.5"></path><path d="M1123.16 187.95L1105.77 363.79" stroke="rgba(255, 255, 255, 1)" stroke-width="1.5"></path><path d="M1105.77 363.79L1105.77 363.79" stroke="rgba(255, 255, 255, 1)" stroke-width="1.5"></path><path d="M1105.77 363.79L1265.44 351.36" stroke="rgba(255, 255, 255, 1)" stroke-width="1.5"></path><path d="M1089.96 559.9L1089.96 559.9" stroke="rgba(255, 255, 255, 1)" stroke-width="1.5"></path><path d="M1089.96 559.9L1121.81 680.9" stroke="rgba(255, 255, 255, 1)" stroke-width="1.5"></path><path d="M1121.81 680.9L1121.81 680.9" stroke="rgba(255, 255, 255, 1)" stroke-width="1.5"></path><path d="M1121.81 680.9L1287.23 670.83" stroke="rgba(255, 255, 255, 1)" stroke-width="1.5"></path><path d="M1244.69 -38.16L1244.69 -38.16" stroke="rgba(255, 255, 255, 1)" stroke-width="1.5"></path><path d="M1244.69 -38.16L1242.07 87" stroke="rgba(255, 255, 255, 1)" stroke-width="1.5"></path><path d="M1244.69 -38.16L1390.91 -71.25" stroke="rgba(255, 255, 255, 1)" stroke-width="1.5"></path><path d="M1244.69 -38.16L1142.96 99.17" stroke="rgba(255, 255, 255, 1)" stroke-width="1.5"></path><path d="M1244.69 -38.16L1435.92 70.7" stroke="rgba(255, 255, 255, 1)" stroke-width="1.5"></path><path d="M1242.07 87L1242.07 87" stroke="rgba(255, 255, 255, 1)" stroke-width="1.5"></path><path d="M1272.14 249.97L1272.14 249.97" stroke="rgba(255, 255, 255, 1)" stroke-width="1.5"></path><path d="M1272.14 249.97L1265.44 351.36" stroke="rgba(255, 255, 255, 1)" stroke-width="1.5"></path><path d="M1272.14 249.97L1404.66 225.56" stroke="rgba(255, 255, 255, 1)" stroke-width="1.5"></path><path d="M1265.44 351.36L1265.44 351.36" stroke="rgba(255, 255, 255, 1)" stroke-width="1.5"></path><path d="M1299.61 557.01L1299.61 557.01" stroke="rgba(255, 255, 255, 1)" stroke-width="1.5"></path><path d="M1299.61 557.01L1410.95 530.54" stroke="rgba(255, 255, 255, 1)" stroke-width="1.5"></path><path d="M1299.61 557.01L1287.23 670.83" stroke="rgba(255, 255, 255, 1)" stroke-width="1.5"></path><path d="M1299.61 557.01L1392.55 687.08" stroke="rgba(255, 255, 255, 1)" stroke-width="1.5"></path><path d="M1299.61 557.01L1265.44 351.36" stroke="rgba(255, 255, 255, 1)" stroke-width="1.5"></path><path d="M1287.23 670.83L1287.23 670.83" stroke="rgba(255, 255, 255, 1)" stroke-width="1.5"></path><path d="M1287.23 670.83L1392.55 687.08" stroke="rgba(255, 255, 255, 1)" stroke-width="1.5"></path><path d="M1390.91 -71.25L1390.91 -71.25" stroke="rgba(255, 255, 255, 1)" stroke-width="1.5"></path><path d="M1390.91 -71.25L1435.92 70.7" stroke="rgba(255, 255, 255, 1)" stroke-width="1.5"></path><path d="M1390.91 -71.25L1576.19 -62.68" stroke="rgba(255, 255, 255, 1)" stroke-width="1.5"></path><path d="M1390.91 -71.25L1242.07 87" stroke="rgba(255, 255, 255, 1)" stroke-width="1.5"></path><path d="M1390.91 -71.25L1542.59 86.75" stroke="rgba(255, 255, 255, 1)" stroke-width="1.5"></path><path d="M1435.92 70.7L1435.92 70.7" stroke="rgba(255, 255, 255, 1)" stroke-width="1.5"></path><path d="M1435.92 70.7L1542.59 86.75" stroke="rgba(255, 255, 255, 1)" stroke-width="1.5"></path><path d="M1404.66 225.56L1404.66 225.56" stroke="rgba(255, 255, 255, 1)" stroke-width="1.5"></path><path d="M1404.66 225.56L1435.92 70.7" stroke="rgba(255, 255, 255, 1)" stroke-width="1.5"></path><path d="M1404.66 225.56L1265.44 351.36" stroke="rgba(255, 255, 255, 1)" stroke-width="1.5"></path><path d="M1456.74 408.69L1456.74 408.69" stroke="rgba(255, 255, 255, 1)" stroke-width="1.5"></path><path d="M1456.74 408.69L1410.95 530.54" stroke="rgba(255, 255, 255, 1)" stroke-width="1.5"></path><path d="M1456.74 408.69L1598.23 345.63" stroke="rgba(255, 255, 255, 1)" stroke-width="1.5"></path><path d="M1456.74 408.69L1404.66 225.56" stroke="rgba(255, 255, 255, 1)" stroke-width="1.5"></path><path d="M1410.95 530.54L1410.95 530.54" stroke="rgba(255, 255, 255, 1)" stroke-width="1.5"></path><path d="M1392.55 687.08L1392.55 687.08" stroke="rgba(255, 255, 255, 1)" stroke-width="1.5"></path><path d="M1576.19 -62.68L1576.19 -62.68" stroke="rgba(255, 255, 255, 1)" stroke-width="1.5"></path><path d="M1576.19 -62.68L1542.59 86.75" stroke="rgba(255, 255, 255, 1)" stroke-width="1.5"></path><path d="M1576.19 -62.68L1435.92 70.7" stroke="rgba(255, 255, 255, 1)" stroke-width="1.5"></path><path d="M1576.19 -62.68L1606.16 199.19" stroke="rgba(255, 255, 255, 1)" stroke-width="1.5"></path><path d="M1576.19 -62.68L1244.69 -38.16" stroke="rgba(255, 255, 255, 1)" stroke-width="1.5"></path><path d="M1542.59 86.75L1542.59 86.75" stroke="rgba(255, 255, 255, 1)" stroke-width="1.5"></path><path d="M1542.59 86.75L1606.16 199.19" stroke="rgba(255, 255, 255, 1)" stroke-width="1.5"></path><path d="M1542.59 86.75L1404.66 225.56" stroke="rgba(255, 255, 255, 1)" stroke-width="1.5"></path><path d="M1542.59 86.75L1598.23 345.63" stroke="rgba(255, 255, 255, 1)" stroke-width="1.5"></path><path d="M1606.16 199.19L1606.16 199.19" stroke="rgba(255, 255, 255, 1)" stroke-width="1.5"></path><path d="M1606.16 199.19L1598.23 345.63" stroke="rgba(255, 255, 255, 1)" stroke-width="1.5"></path><path d="M1598.23 345.63L1598.23 345.63" stroke="rgba(255, 255, 255, 1)" stroke-width="1.5"></path><path d="M1598.23 345.63L1593.14 559.99" stroke="rgba(255, 255, 255, 1)" stroke-width="1.5"></path><path d="M1593.14 559.99L1593.14 559.99" stroke="rgba(255, 255, 255, 1)" stroke-width="1.5"></path><path d="M1593.14 559.99L1598.3 677.6" stroke="rgba(255, 255, 255, 1)" stroke-width="1.5"></path><path d="M1593.14 559.99L1410.95 530.54" stroke="rgba(255, 255, 255, 1)" stroke-width="1.5"></path><path d="M1593.14 559.99L1456.74 408.69" stroke="rgba(255, 255, 255, 1)" stroke-width="1.5"></path><path d="M1598.3 677.6L1598.3 677.6" stroke="rgba(255, 255, 255, 1)" stroke-width="1.5"></path><path d="M1598.3 677.6L1392.55 687.08" stroke="rgba(255, 255, 255, 1)" stroke-width="1.5"></path><path d="M1598.3 677.6L1410.95 530.54" stroke="rgba(255, 255, 255, 1)" stroke-width="1.5"></path><path d="M1598.3 677.6L1456.74 408.69" stroke="rgba(255, 255, 255, 1)" stroke-width="1.5"></path><path d="M1598.3 677.6L1287.23 670.83" stroke="rgba(255, 255, 255, 1)" stroke-width="1.5"></path><path d="M1598.3 677.6L1299.61 557.01" stroke="rgba(255, 255, 255, 1)" stroke-width="1.5"></path><circle r="5" cx="-95.98" cy="376.73" fill="rgba(255, 255, 255, 1)"></circle><circle r="5" cx="-56.49" cy="507.9" fill="rgba(255, 255, 255, 1)"></circle><circle r="5" cx="98.03" cy="361.79" fill="rgba(255, 255, 255, 1)"></circle><circle r="5" cx="49.86" cy="501.4" fill="rgba(255, 255, 255, 1)"></circle><circle r="5" cx="65.47" cy="699.14" fill="rgba(255, 255, 255, 1)"></circle><circle r="5" cx="245.78" cy="347.79" fill="rgba(255, 255, 255, 1)"></circle><circle r="5" cx="217.36" cy="489.68" fill="rgba(255, 255, 255, 1)"></circle><circle r="5" cx="233.25" cy="695.4" fill="rgba(255, 255, 255, 1)"></circle><circle r="5" cx="338.69" cy="370.04" fill="rgba(255, 255, 255, 1)"></circle><circle r="5" cx="365.64" cy="535.82" fill="rgba(255, 255, 255, 1)"></circle><circle r="5" cx="408.7" cy="668" fill="rgba(255, 255, 255, 1)"></circle><circle r="5" cx="505.35" cy="404.92" fill="rgba(255, 255, 255, 1)"></circle><circle r="5" cx="550.69" cy="494.17" fill="rgba(255, 255, 255, 1)"></circle><circle r="5" cx="550.91" cy="656.94" fill="rgba(255, 255, 255, 1)"></circle><circle r="5" cx="692.14" cy="211.87" fill="rgba(255, 255, 255, 1)"></circle><circle r="5" cx="707.61" cy="349.12" fill="rgba(255, 255, 255, 1)"></circle><circle r="5" cx="690.52" cy="533.62" fill="rgba(255, 255, 255, 1)"></circle><circle r="5" cx="640.25" cy="704.49" fill="rgba(255, 255, 255, 1)"></circle><circle r="5" cx="802.57" cy="244.41" fill="rgba(255, 255, 255, 1)"></circle><circle r="5" cx="810.72" cy="347.85" fill="rgba(255, 255, 255, 1)"></circle><circle r="5" cx="826.58" cy="552.73" fill="rgba(255, 255, 255, 1)"></circle><circle r="5" cx="842.76" cy="689.23" fill="rgba(255, 255, 255, 1)"></circle><circle r="5" cx="968.07" cy="44.88" fill="rgba(255, 255, 255, 1)"></circle><circle r="5" cx="954.95" cy="189.51" fill="rgba(255, 255, 255, 1)"></circle><circle r="5" cx="939.11" cy="393.65" fill="rgba(255, 255, 255, 1)"></circle><circle r="5" cx="963.69" cy="497.43" fill="rgba(255, 255, 255, 1)"></circle><circle r="5" cx="1010.92" cy="683.73" fill="rgba(255, 255, 255, 1)"></circle><circle r="5" cx="1092.21" cy="-89.07" fill="rgba(255, 255, 255, 1)"></circle><circle r="5" cx="1142.96" cy="99.17" fill="rgba(255, 255, 255, 1)"></circle><circle r="5" cx="1123.16" cy="187.95" fill="rgba(255, 255, 255, 1)"></circle><circle r="5" cx="1105.77" cy="363.79" fill="rgba(255, 255, 255, 1)"></circle><circle r="5" cx="1089.96" cy="559.9" fill="rgba(255, 255, 255, 1)"></circle><circle r="5" cx="1121.81" cy="680.9" fill="rgba(255, 255, 255, 1)"></circle><circle r="5" cx="1244.69" cy="-38.16" fill="rgba(255, 255, 255, 1)"></circle><circle r="5" cx="1242.07" cy="87" fill="rgba(255, 255, 255, 1)"></circle><circle r="5" cx="1272.14" cy="249.97" fill="rgba(255, 255, 255, 1)"></circle><circle r="5" cx="1265.44" cy="351.36" fill="rgba(255, 255, 255, 1)"></circle><circle r="5" cx="1299.61" cy="557.01" fill="rgba(255, 255, 255, 1)"></circle><circle r="5" cx="1287.23" cy="670.83" fill="rgba(255, 255, 255, 1)"></circle><circle r="5" cx="1390.91" cy="-71.25" fill="rgba(255, 255, 255, 1)"></circle><circle r="5" cx="1435.92" cy="70.7" fill="rgba(255, 255, 255, 1)"></circle><circle r="5" cx="1404.66" cy="225.56" fill="rgba(255, 255, 255, 1)"></circle><circle r="5" cx="1456.74" cy="408.69" fill="rgba(255, 255, 255, 1)"></circle><circle r="5" cx="1410.95" cy="530.54" fill="rgba(255, 255, 255, 1)"></circle><circle r="5" cx="1392.55" cy="687.08" fill="rgba(255, 255, 255, 1)"></circle><circle r="5" cx="1576.19" cy="-62.68" fill="rgba(255, 255, 255, 1)"></circle><circle r="5" cx="1542.59" cy="86.75" fill="rgba(255, 255, 255, 1)"></circle><circle r="5" cx="1606.16" cy="199.19" fill="rgba(255, 255, 255, 1)"></circle><circle r="5" cx="1598.23" cy="345.63" fill="rgba(255, 255, 255, 1)"></circle><circle r="5" cx="1593.14" cy="559.99" fill="rgba(255, 255, 255, 1)"></circle><circle r="5" cx="1598.3" cy="677.6" fill="rgba(255, 255, 255, 1)"></circle><path d="M649.46 554.86L649.46 554.86" stroke="hsl(0, 0%, 100%)" stroke-width="1.5"></path><path d="M649.46 554.86L503.99 536.33" stroke="hsl(0, 0%, 100%)" stroke-width="1.5"></path><path d="M649.46 554.86L695.23 708.73" stroke="hsl(0, 0%, 100%)" stroke-width="1.5"></path><path d="M649.46 554.86L828.56 521.4" stroke="hsl(0, 0%, 100%)" stroke-width="1.5"></path><path d="M649.46 554.86L683.46 374.48" stroke="hsl(0, 0%, 100%)" stroke-width="1.5"></path><path d="M649.46 554.86L521.67 707.11" stroke="hsl(0, 0%, 100%)" stroke-width="1.5"></path><path d="M649.46 554.86L792.7 694.16" stroke="hsl(0, 0%, 100%)" stroke-width="1.5"></path><path d="M1305.99 -85.16L1305.99 -85.16" stroke="hsl(0, 0%, 100%)" stroke-width="1.5"></path><path d="M1305.99 -85.16L1402.01 -76.54" stroke="hsl(0, 0%, 100%)" stroke-width="1.5"></path><path d="M1305.99 -85.16L1424.29 55.64" stroke="hsl(0, 0%, 100%)" stroke-width="1.5"></path><path d="M1305.99 -85.16L1254.97 95.53" stroke="hsl(0, 0%, 100%)" stroke-width="1.5"></path><path d="M1305.99 -85.16L1136.86 95.27" stroke="hsl(0, 0%, 100%)" stroke-width="1.5"></path><path d="M1305.99 -85.16L1281.73 193.99" stroke="hsl(0, 0%, 100%)" stroke-width="1.5"></path><path d="M1281.73 193.99L1281.73 193.99" stroke="hsl(0, 0%, 100%)" stroke-width="1.5"></path><path d="M1281.73 193.99L1254.97 95.53" stroke="hsl(0, 0%, 100%)" stroke-width="1.5"></path><path d="M1281.73 193.99L1136.86 95.27" stroke="hsl(0, 0%, 100%)" stroke-width="1.5"></path><path d="M1281.73 193.99L1461.6 196" stroke="hsl(0, 0%, 100%)" stroke-width="1.5"></path><path d="M1281.73 193.99L1272.59 377.65" stroke="hsl(0, 0%, 100%)" stroke-width="1.5"></path><path d="M1281.73 193.99L1424.29 55.64" stroke="hsl(0, 0%, 100%)" stroke-width="1.5"></path><path d="M1281.73 193.99L1431.63 363.07" stroke="hsl(0, 0%, 100%)" stroke-width="1.5"></path><path d="M1424.29 55.64L1424.29 55.64" stroke="hsl(0, 0%, 100%)" stroke-width="1.5"></path><path d="M1424.29 55.64L1544.31 83.83" stroke="hsl(0, 0%, 100%)" stroke-width="1.5"></path><path d="M1424.29 55.64L1402.01 -76.54" stroke="hsl(0, 0%, 100%)" stroke-width="1.5"></path><path d="M1424.29 55.64L1461.6 196" stroke="hsl(0, 0%, 100%)" stroke-width="1.5"></path><path d="M1424.29 55.64L1254.97 95.53" stroke="hsl(0, 0%, 100%)" stroke-width="1.5"></path><path d="M1419.61 642.5L1419.61 642.5" stroke="hsl(0, 0%, 100%)" stroke-width="1.5"></path><path d="M1419.61 642.5L1286.34 682.36" stroke="hsl(0, 0%, 100%)" stroke-width="1.5"></path><path d="M1419.61 642.5L1388.5 487.68" stroke="hsl(0, 0%, 100%)" stroke-width="1.5"></path><path d="M1594.19 364.49L1594.19 364.49" stroke="hsl(0, 0%, 100%)" stroke-width="1.5"></path><path d="M1594.19 364.49L1431.63 363.07" stroke="hsl(0, 0%, 100%)" stroke-width="1.5"></path><path d="M1594.19 364.49L1561.63 204.72" stroke="hsl(0, 0%, 100%)" stroke-width="1.5"></path><path d="M1594.19 364.49L1610.8 562.3" stroke="hsl(0, 0%, 100%)" stroke-width="1.5"></path><path d="M-69.03 681.44L-69.03 681.44" stroke="hsl(0, 0%, 100%)" stroke-width="1.5"></path><path d="M-69.03 681.44L109.61 689.74" stroke="hsl(0, 0%, 100%)" stroke-width="1.5"></path><path d="M-69.03 681.44L68.67 511.37" stroke="hsl(0, 0%, 100%)" stroke-width="1.5"></path><path d="M-69.03 681.44L219.76 702.93" stroke="hsl(0, 0%, 100%)" stroke-width="1.5"></path><path d="M68.67 511.37L68.67 511.37" stroke="hsl(0, 0%, 100%)" stroke-width="1.5"></path><path d="M68.67 511.37L208.42 493.2" stroke="hsl(0, 0%, 100%)" stroke-width="1.5"></path><path d="M68.67 511.37L109.61 689.74" stroke="hsl(0, 0%, 100%)" stroke-width="1.5"></path><path d="M68.67 511.37L219.76 702.93" stroke="hsl(0, 0%, 100%)" stroke-width="1.5"></path><path d="M68.67 511.37L389.27 528.47" stroke="hsl(0, 0%, 100%)" stroke-width="1.5"></path><path d="M109.61 689.74L109.61 689.74" stroke="hsl(0, 0%, 100%)" stroke-width="1.5"></path><path d="M109.61 689.74L219.76 702.93" stroke="hsl(0, 0%, 100%)" stroke-width="1.5"></path><path d="M109.61 689.74L208.42 493.2" stroke="hsl(0, 0%, 100%)" stroke-width="1.5"></path><path d="M109.61 689.74L364.33 691.68" stroke="hsl(0, 0%, 100%)" stroke-width="1.5"></path><path d="M208.42 493.2L208.42 493.2" stroke="hsl(0, 0%, 100%)" stroke-width="1.5"></path><path d="M208.42 493.2L389.27 528.47" stroke="hsl(0, 0%, 100%)" stroke-width="1.5"></path><path d="M208.42 493.2L219.76 702.93" stroke="hsl(0, 0%, 100%)" stroke-width="1.5"></path><path d="M208.42 493.2L364.33 691.68" stroke="hsl(0, 0%, 100%)" stroke-width="1.5"></path><path d="M208.42 493.2L503.99 536.33" stroke="hsl(0, 0%, 100%)" stroke-width="1.5"></path><path d="M219.76 702.93L219.76 702.93" stroke="hsl(0, 0%, 100%)" stroke-width="1.5"></path><path d="M219.76 702.93L364.33 691.68" stroke="hsl(0, 0%, 100%)" stroke-width="1.5"></path><path d="M219.76 702.93L389.27 528.47" stroke="hsl(0, 0%, 100%)" stroke-width="1.5"></path><path d="M389.27 528.47L389.27 528.47" stroke="hsl(0, 0%, 100%)" stroke-width="1.5"></path><path d="M389.27 528.47L503.99 536.33" stroke="hsl(0, 0%, 100%)" stroke-width="1.5"></path><path d="M389.27 528.47L364.33 691.68" stroke="hsl(0, 0%, 100%)" stroke-width="1.5"></path><path d="M389.27 528.47L521.67 707.11" stroke="hsl(0, 0%, 100%)" stroke-width="1.5"></path><path d="M364.33 691.68L364.33 691.68" stroke="hsl(0, 0%, 100%)" stroke-width="1.5"></path><path d="M364.33 691.68L521.67 707.11" stroke="hsl(0, 0%, 100%)" stroke-width="1.5"></path><path d="M503.99 536.33L503.99 536.33" stroke="hsl(0, 0%, 100%)" stroke-width="1.5"></path><path d="M503.99 536.33L521.67 707.11" stroke="hsl(0, 0%, 100%)" stroke-width="1.5"></path><path d="M503.99 536.33L364.33 691.68" stroke="hsl(0, 0%, 100%)" stroke-width="1.5"></path><path d="M503.99 536.33L683.46 374.48" stroke="hsl(0, 0%, 100%)" stroke-width="1.5"></path><path d="M521.67 707.11L521.67 707.11" stroke="hsl(0, 0%, 100%)" stroke-width="1.5"></path><path d="M521.67 707.11L695.23 708.73" stroke="hsl(0, 0%, 100%)" stroke-width="1.5"></path><path d="M683.46 374.48L683.46 374.48" stroke="hsl(0, 0%, 100%)" stroke-width="1.5"></path><path d="M683.46 374.48L808.08 407.51" stroke="hsl(0, 0%, 100%)" stroke-width="1.5"></path><path d="M683.46 374.48L828.56 521.4" stroke="hsl(0, 0%, 100%)" stroke-width="1.5"></path><path d="M683.46 374.48L1001.38 353.63" stroke="hsl(0, 0%, 100%)" stroke-width="1.5"></path><path d="M683.46 374.48L389.27 528.47" stroke="hsl(0, 0%, 100%)" stroke-width="1.5"></path><path d="M695.23 708.73L695.23 708.73" stroke="hsl(0, 0%, 100%)" stroke-width="1.5"></path><path d="M695.23 708.73L792.7 694.16" stroke="hsl(0, 0%, 100%)" stroke-width="1.5"></path><path d="M695.23 708.73L828.56 521.4" stroke="hsl(0, 0%, 100%)" stroke-width="1.5"></path><path d="M808.08 407.51L808.08 407.51" stroke="hsl(0, 0%, 100%)" stroke-width="1.5"></path><path d="M808.08 407.51L828.56 521.4" stroke="hsl(0, 0%, 100%)" stroke-width="1.5"></path><path d="M808.08 407.51L1001.38 353.63" stroke="hsl(0, 0%, 100%)" stroke-width="1.5"></path><path d="M808.08 407.51L983.47 517.8" stroke="hsl(0, 0%, 100%)" stroke-width="1.5"></path><path d="M808.08 407.51L649.46 554.86" stroke="hsl(0, 0%, 100%)" stroke-width="1.5"></path><path d="M828.56 521.4L828.56 521.4" stroke="hsl(0, 0%, 100%)" stroke-width="1.5"></path><path d="M828.56 521.4L983.47 517.8" stroke="hsl(0, 0%, 100%)" stroke-width="1.5"></path><path d="M828.56 521.4L792.7 694.16" stroke="hsl(0, 0%, 100%)" stroke-width="1.5"></path><path d="M792.7 694.16L792.7 694.16" stroke="hsl(0, 0%, 100%)" stroke-width="1.5"></path><path d="M792.7 694.16L952.24 712.23" stroke="hsl(0, 0%, 100%)" stroke-width="1.5"></path><path d="M1001.38 353.63L1001.38 353.63" stroke="hsl(0, 0%, 100%)" stroke-width="1.5"></path><path d="M1001.38 353.63L1155.8 412" stroke="hsl(0, 0%, 100%)" stroke-width="1.5"></path><path d="M1001.38 353.63L983.47 517.8" stroke="hsl(0, 0%, 100%)" stroke-width="1.5"></path><path d="M983.47 517.8L983.47 517.8" stroke="hsl(0, 0%, 100%)" stroke-width="1.5"></path><path d="M983.47 517.8L1161.18 549.29" stroke="hsl(0, 0%, 100%)" stroke-width="1.5"></path><path d="M983.47 517.8L952.24 712.23" stroke="hsl(0, 0%, 100%)" stroke-width="1.5"></path><path d="M983.47 517.8L1129.28 653.85" stroke="hsl(0, 0%, 100%)" stroke-width="1.5"></path><path d="M952.24 712.23L952.24 712.23" stroke="hsl(0, 0%, 100%)" stroke-width="1.5"></path><path d="M952.24 712.23L1129.28 653.85" stroke="hsl(0, 0%, 100%)" stroke-width="1.5"></path><path d="M952.24 712.23L828.56 521.4" stroke="hsl(0, 0%, 100%)" stroke-width="1.5"></path><path d="M952.24 712.23L695.23 708.73" stroke="hsl(0, 0%, 100%)" stroke-width="1.5"></path><path d="M1136.86 95.27L1136.86 95.27" stroke="hsl(0, 0%, 100%)" stroke-width="1.5"></path><path d="M1136.86 95.27L1254.97 95.53" stroke="hsl(0, 0%, 100%)" stroke-width="1.5"></path><path d="M1136.86 95.27L1424.29 55.64" stroke="hsl(0, 0%, 100%)" stroke-width="1.5"></path><path d="M1136.86 95.27L1001.38 353.63" stroke="hsl(0, 0%, 100%)" stroke-width="1.5"></path><path d="M1155.8 412L1155.8 412" stroke="hsl(0, 0%, 100%)" stroke-width="1.5"></path><path d="M1155.8 412L1272.59 377.65" stroke="hsl(0, 0%, 100%)" stroke-width="1.5"></path><path d="M1155.8 412L1161.18 549.29" stroke="hsl(0, 0%, 100%)" stroke-width="1.5"></path><path d="M1155.8 412L1264.91 529.82" stroke="hsl(0, 0%, 100%)" stroke-width="1.5"></path><path d="M1155.8 412L983.47 517.8" stroke="hsl(0, 0%, 100%)" stroke-width="1.5"></path><path d="M1155.8 412L1129.28 653.85" stroke="hsl(0, 0%, 100%)" stroke-width="1.5"></path><path d="M1161.18 549.29L1161.18 549.29" stroke="hsl(0, 0%, 100%)" stroke-width="1.5"></path><path d="M1161.18 549.29L1264.91 529.82" stroke="hsl(0, 0%, 100%)" stroke-width="1.5"></path><path d="M1161.18 549.29L1129.28 653.85" stroke="hsl(0, 0%, 100%)" stroke-width="1.5"></path><path d="M1161.18 549.29L1286.34 682.36" stroke="hsl(0, 0%, 100%)" stroke-width="1.5"></path><path d="M1161.18 549.29L1272.59 377.65" stroke="hsl(0, 0%, 100%)" stroke-width="1.5"></path><path d="M1129.28 653.85L1129.28 653.85" stroke="hsl(0, 0%, 100%)" stroke-width="1.5"></path><path d="M1129.28 653.85L1286.34 682.36" stroke="hsl(0, 0%, 100%)" stroke-width="1.5"></path><path d="M1254.97 95.53L1254.97 95.53" stroke="hsl(0, 0%, 100%)" stroke-width="1.5"></path><path d="M1272.59 377.65L1272.59 377.65" stroke="hsl(0, 0%, 100%)" stroke-width="1.5"></path><path d="M1272.59 377.65L1264.91 529.82" stroke="hsl(0, 0%, 100%)" stroke-width="1.5"></path><path d="M1272.59 377.65L1431.63 363.07" stroke="hsl(0, 0%, 100%)" stroke-width="1.5"></path><path d="M1272.59 377.65L1388.5 487.68" stroke="hsl(0, 0%, 100%)" stroke-width="1.5"></path><path d="M1264.91 529.82L1264.91 529.82" stroke="hsl(0, 0%, 100%)" stroke-width="1.5"></path><path d="M1264.91 529.82L1388.5 487.68" stroke="hsl(0, 0%, 100%)" stroke-width="1.5"></path><path d="M1264.91 529.82L1286.34 682.36" stroke="hsl(0, 0%, 100%)" stroke-width="1.5"></path><path d="M1286.34 682.36L1286.34 682.36" stroke="hsl(0, 0%, 100%)" stroke-width="1.5"></path><path d="M1402.01 -76.54L1402.01 -76.54" stroke="hsl(0, 0%, 100%)" stroke-width="1.5"></path><path d="M1402.01 -76.54L1594 -81.06" stroke="hsl(0, 0%, 100%)" stroke-width="1.5"></path><path d="M1402.01 -76.54L1544.31 83.83" stroke="hsl(0, 0%, 100%)" stroke-width="1.5"></path><path d="M1402.01 -76.54L1254.97 95.53" stroke="hsl(0, 0%, 100%)" stroke-width="1.5"></path><path d="M1461.6 196L1461.6 196" stroke="hsl(0, 0%, 100%)" stroke-width="1.5"></path><path d="M1461.6 196L1561.63 204.72" stroke="hsl(0, 0%, 100%)" stroke-width="1.5"></path><path d="M1461.6 196L1544.31 83.83" stroke="hsl(0, 0%, 100%)" stroke-width="1.5"></path><path d="M1461.6 196L1431.63 363.07" stroke="hsl(0, 0%, 100%)" stroke-width="1.5"></path><path d="M1461.6 196L1594.19 364.49" stroke="hsl(0, 0%, 100%)" stroke-width="1.5"></path><path d="M1431.63 363.07L1431.63 363.07" stroke="hsl(0, 0%, 100%)" stroke-width="1.5"></path><path d="M1431.63 363.07L1388.5 487.68" stroke="hsl(0, 0%, 100%)" stroke-width="1.5"></path><path d="M1388.5 487.68L1388.5 487.68" stroke="hsl(0, 0%, 100%)" stroke-width="1.5"></path><path d="M1388.5 487.68L1286.34 682.36" stroke="hsl(0, 0%, 100%)" stroke-width="1.5"></path><path d="M1594 -81.06L1594 -81.06" stroke="hsl(0, 0%, 100%)" stroke-width="1.5"></path><path d="M1594 -81.06L1544.31 83.83" stroke="hsl(0, 0%, 100%)" stroke-width="1.5"></path><path d="M1594 -81.06L1424.29 55.64" stroke="hsl(0, 0%, 100%)" stroke-width="1.5"></path><path d="M1594 -81.06L1561.63 204.72" stroke="hsl(0, 0%, 100%)" stroke-width="1.5"></path><path d="M1544.31 83.83L1544.31 83.83" stroke="hsl(0, 0%, 100%)" stroke-width="1.5"></path><path d="M1544.31 83.83L1561.63 204.72" stroke="hsl(0, 0%, 100%)" stroke-width="1.5"></path><path d="M1561.63 204.72L1561.63 204.72" stroke="hsl(0, 0%, 100%)" stroke-width="1.5"></path><path d="M1610.8 562.3L1610.8 562.3" stroke="hsl(0, 0%, 100%)" stroke-width="1.5"></path><path d="M1610.8 562.3L1419.61 642.5" stroke="hsl(0, 0%, 100%)" stroke-width="1.5"></path><circle r="25" cx="649.46" cy="554.86" fill="url(#SvgjsRadialGradient1015)"></circle><circle r="25" cx="1305.99" cy="-85.16" fill="url(#SvgjsRadialGradient1015)"></circle><circle r="25" cx="1281.73" cy="193.99" fill="url(#SvgjsRadialGradient1015)"></circle><circle r="25" cx="1424.29" cy="55.64" fill="url(#SvgjsRadialGradient1015)"></circle><circle r="25" cx="1419.61" cy="642.5" fill="url(#SvgjsRadialGradient1015)"></circle><circle r="25" cx="1594.19" cy="364.49" fill="url(#SvgjsRadialGradient1015)"></circle><circle r="5" cx="-69.03" cy="681.44" fill="#ffffff"></circle><circle r="5" cx="68.67" cy="511.37" fill="#ffffff"></circle><circle r="5" cx="109.61" cy="689.74" fill="#ffffff"></circle><circle r="5" cx="208.42" cy="493.2" fill="#ffffff"></circle><circle r="5" cx="219.76" cy="702.93" fill="#ffffff"></circle><circle r="5" cx="389.27" cy="528.47" fill="#ffffff"></circle><circle r="5" cx="364.33" cy="691.68" fill="#ffffff"></circle><circle r="5" cx="503.99" cy="536.33" fill="#ffffff"></circle><circle r="5" cx="521.67" cy="707.11" fill="#ffffff"></circle><circle r="5" cx="683.46" cy="374.48" fill="#ffffff"></circle><circle r="5" cx="695.23" cy="708.73" fill="#ffffff"></circle><circle r="5" cx="808.08" cy="407.51" fill="#ffffff"></circle><circle r="5" cx="828.56" cy="521.4" fill="#ffffff"></circle><circle r="5" cx="792.7" cy="694.16" fill="#ffffff"></circle><circle r="5" cx="1001.38" cy="353.63" fill="#ffffff"></circle><circle r="5" cx="983.47" cy="517.8" fill="#ffffff"></circle><circle r="5" cx="952.24" cy="712.23" fill="#ffffff"></circle><circle r="5" cx="1136.86" cy="95.27" fill="#ffffff"></circle><circle r="5" cx="1155.8" cy="412" fill="#ffffff"></circle><circle r="5" cx="1161.18" cy="549.29" fill="#ffffff"></circle><circle r="5" cx="1129.28" cy="653.85" fill="#ffffff"></circle><circle r="5" cx="1254.97" cy="95.53" fill="#ffffff"></circle><circle r="5" cx="1272.59" cy="377.65" fill="#ffffff"></circle><circle r="5" cx="1264.91" cy="529.82" fill="#ffffff"></circle><circle r="5" cx="1286.34" cy="682.36" fill="#ffffff"></circle><circle r="5" cx="1402.01" cy="-76.54" fill="#ffffff"></circle><circle r="5" cx="1461.6" cy="196" fill="#ffffff"></circle><circle r="5" cx="1431.63" cy="363.07" fill="#ffffff"></circle><circle r="5" cx="1388.5" cy="487.68" fill="#ffffff"></circle><circle r="5" cx="1594" cy="-81.06" fill="#ffffff"></circle><circle r="5" cx="1544.31" cy="83.83" fill="#ffffff"></circle><circle r="5" cx="1561.63" cy="204.72" fill="#ffffff"></circle><circle r="5" cx="1610.8" cy="562.3" fill="#ffffff"></circle></g><defs><mask id="SvgjsMask1014"><rect width="1440" height="560" fill="#ffffff"></rect></mask><radialGradient id="SvgjsRadialGradient1015"><stop stop-color="#ffffff" offset="0.1"></stop><stop stop-color="rgba(255, 255, 255, 1)" offset="0.2"></stop><stop stop-color="rgba(255, 255, 255, 0)" offset="1"></stop></radialGradient></defs></svg>